# xmcd CD database file
#
# Track frame offsets:
#	150
#	10283
#	18139
#	31554
#	40789
#	51241
#	62003
#	71410
#	82988
#	93415
#	103646
#	110922
#	120345
#
# Disc length: 1819 seconds
#
# Revision: 0
# Processed by: cddbd v1.5.2PL0 Copyright (c) Steve Scherf et al.
# Submitted via: cdripper 1,0,39,0213
#
DISCID=9707190d
DTITLE=The Lucky Band -  The Best Of Square Dance
DYEAR=1900
DGENRE=Country
TTITLE0=01 - Buffalo Square Dance
TTITLE1=02 - Poney Express Dance
TTITLE2=03 - On S'appelle Lucky Band
TTITLE3=04 - My Therese
TTITLE4=05 - Lucky's Dance
TTITLE5=06 - Miss Clara
TTITLE6=07 - Morris Dance
TTITLE7=08 - Happy Willy
TTITLE8=09 - Miss Dalton
TTITLE9=10 - Bubu Dance
TTITLE10=11 - Lucie Story
TTITLE11=12 - Gallo Square Dance
TTITLE12=13 - Petit Thomas
EXTD=
EXTT0=
EXTT1=
EXTT2=
EXTT3=
EXTT4=
EXTT5=
EXTT6=
EXTT7=
EXTT8=
EXTT9=
EXTT10=
EXTT11=
EXTT12=
PLAYORDER=
